<?xml version="1.0" encoding="UTF-8" standalone="no"?>
<svg
   xmlns:dc="http://purl.org/dc/elements/1.1/"
   xmlns:cc="http://creativecommons.org/ns#"
   xmlns:rdf="http://www.w3.org/1999/02/22-rdf-syntax-ns#"
   xmlns:svg="http://www.w3.org/2000/svg"
   xmlns="http://www.w3.org/2000/svg"
   xmlns:sodipodi="http://sodipodi.sourceforge.net/DTD/sodipodi-0.dtd"
   xmlns:inkscape="http://www.inkscape.org/namespaces/inkscape"
   version="1.1"
   id="Ebene_1"
   x="0px"
   y="0px"
   viewBox="0 0 212 212"
   xml:space="preserve"
   sodipodi:docname="logo.svg"
   inkscape:version="1.0.2 (e86c870879, 2021-01-15)"
   width="212"
   height="212"><metadata
   id="metadata29"><rdf:RDF><cc:Work
       rdf:about=""><dc:format>image/svg+xml</dc:format><dc:type
         rdf:resource="http://purl.org/dc/dcmitype/StillImage" /><dc:title></dc:title></cc:Work></rdf:RDF></metadata><defs
   id="defs27" /><sodipodi:namedview
   pagecolor="#ffffff"
   bordercolor="#666666"
   borderopacity="1"
   objecttolerance="10"
   gridtolerance="10"
   guidetolerance="10"
   inkscape:pageopacity="0"
   inkscape:pageshadow="2"
   inkscape:window-width="2165"
   inkscape:window-height="1175"
   id="namedview25"
   showgrid="false"
   inkscape:zoom="2.7"
   inkscape:cx="250"
   inkscape:cy="106"
   inkscape:window-x="0"
   inkscape:window-y="0"
   inkscape:window-maximized="0"
   inkscape:current-layer="Ebene_1"
   inkscape:document-rotation="0"
   fit-margin-top="0"
   fit-margin-left="0"
   fit-margin-right="0"
   fit-margin-bottom="0" />
<style
   type="text/css"
   id="style2">
	.st0{fill:#71C0E9;}
	.st1{fill:#36A9E1;}
	.st2{fill:#FFFFFF;}
	.st3{fill:#424241;}
	.st4{fill:#454444;}
</style>
<path
   class="st0"
   d="M 106,0 C 47.55,0 0,47.55 0,106 0,164.45 47.55,212 106,212 164.45,212 212,164.45 212,106 212,47.55 164.45,0 106,0 Z"
   id="path4" />
<circle
   class="st1"
   cx="106"
   cy="106"
   r="90.889999"
   id="circle6" />
<path
   class="st2"
   d="m 106,15.11 c -50.12,0 -90.89,40.78 -90.89,90.89 0,50.11 40.78,90.89 90.89,90.89 4.12,0 7.46,-3.34 7.46,-7.46 V 60.15 c 22.08,3.58 38.99,22.77 38.99,45.85 0,4.12 3.34,7.46 7.46,7.46 4.12,0 7.46,-3.34 7.46,-7.46 0,-33.85 -27.54,-61.38 -61.38,-61.38 -33.85,0 -61.38,27.54 -61.38,61.38 0,4.12 3.34,7.46 7.46,7.46 4.12,0 7.46,-3.34 7.46,-7.46 0,-23.08 16.91,-42.27 38.99,-45.85 V 181.6 C 60.12,177.84 30.01,145.37 30.01,106 c 0,-41.89 34.08,-75.97 75.97,-75.97 41.89,0 75.97,34.08 75.97,75.97 0,4.12 3.34,7.46 7.46,7.46 4.12,0 7.46,-3.34 7.46,-7.46 C 196.89,55.88 156.12,15.11 106,15.11 Z"
   id="path8" />

</svg>
